<svg width="853" height="133" viewBox="0 0 853 133" fill="none" xmlns="http://www.w3.org/2000/svg">
<path d="M166.73 33.656C170.266 33.656 172.986 34.7553 174.89 36.954C176.817 39.13 177.78 42.19 177.78 46.134C177.78 48.6953 177.349 50.9167 176.488 52.798C175.627 54.6793 174.369 56.13 172.714 57.15C171.059 58.17 169.065 58.68 166.73 58.68C163.194 58.68 160.463 57.5807 158.536 55.382C156.632 53.1607 155.68 50.078 155.68 46.134C155.68 43.5727 156.111 41.3627 156.972 39.504C157.833 37.6227 159.091 36.1833 160.746 35.186C162.401 34.166 164.395 33.656 166.73 33.656ZM166.73 38.62C165.393 38.62 164.429 39.198 163.84 40.354C163.251 41.4873 162.956 43.414 162.956 46.134C162.956 48.854 163.251 50.8033 163.84 51.982C164.429 53.138 165.393 53.716 166.73 53.716C168.09 53.716 169.053 53.138 169.62 51.982C170.209 50.826 170.504 48.8767 170.504 46.134C170.504 43.414 170.209 41.4873 169.62 40.354C169.031 39.198 168.067 38.62 166.73 38.62ZM192.143 33.656C195.067 33.656 197.605 34.5853 199.759 36.444L196.529 40.252C195.849 39.7533 195.18 39.368 194.523 39.096C193.888 38.824 193.208 38.688 192.483 38.688C191.1 38.688 190.023 39.3113 189.253 40.558C188.505 41.8047 188.131 43.652 188.131 46.1C188.131 48.548 188.516 50.384 189.287 51.608C190.057 52.8093 191.157 53.41 192.585 53.41C193.355 53.41 194.069 53.2513 194.727 52.934C195.407 52.6167 196.155 52.1407 196.971 51.506L200.031 55.382C199.079 56.334 197.923 57.1273 196.563 57.762C195.225 58.374 193.786 58.68 192.245 58.68C189.91 58.68 187.893 58.204 186.193 57.252C184.493 56.2773 183.178 54.8493 182.249 52.968C181.319 51.0867 180.855 48.7973 180.855 46.1C180.855 43.516 181.331 41.2947 182.283 39.436C183.235 37.5547 184.561 36.1267 186.261 35.152C187.961 34.1547 189.921 33.656 192.143 33.656ZM215.602 58V48.446H210.196V58H203.192V34.336H210.196V43.074H215.602V34.336H222.606V58H215.602ZM237.506 33.656C241.042 33.656 243.762 34.7553 245.666 36.954C247.592 39.13 248.556 42.19 248.556 46.134C248.556 48.6953 248.125 50.9167 247.264 52.798C246.402 54.6793 245.144 56.13 243.49 57.15C241.835 58.17 239.84 58.68 237.506 58.68C233.97 58.68 231.238 57.5807 229.312 55.382C227.408 53.1607 226.456 50.078 226.456 46.134C226.456 43.5727 226.886 41.3627 227.748 39.504C228.609 37.6227 229.867 36.1833 231.522 35.186C233.176 34.166 235.171 33.656 237.506 33.656ZM237.506 38.62C236.168 38.62 235.205 39.198 234.616 40.354C234.026 41.4873 233.732 43.414 233.732 46.134C233.732 48.854 234.026 50.8033 234.616 51.982C235.205 53.138 236.168 53.716 237.506 53.716C238.866 53.716 239.829 53.138 240.396 51.982C240.985 50.826 241.28 48.8767 241.28 46.134C241.28 43.414 240.985 41.4873 240.396 40.354C239.806 39.198 238.843 38.62 237.506 38.62ZM266.318 45.454C267.882 45.7713 269.152 46.3607 270.126 47.222C271.101 48.0607 271.588 49.3187 271.588 50.996C271.588 53.6027 270.636 55.4273 268.732 56.47C266.851 57.49 264.176 58 260.708 58H252.412V34.336H259.79C263.304 34.336 265.978 34.812 267.814 35.764C269.673 36.6933 270.602 38.2573 270.602 40.456C270.602 41.8613 270.194 42.972 269.378 43.788C268.562 44.5813 267.542 45.1367 266.318 45.454ZM259.416 39.13V43.482H260.606C261.672 43.482 262.42 43.312 262.85 42.972C263.281 42.6093 263.496 42.0087 263.496 41.17C263.496 40.4673 263.258 39.9573 262.782 39.64C262.329 39.3 261.547 39.13 260.436 39.13H259.416ZM260.776 53.07C261.955 53.07 262.85 52.8887 263.462 52.526C264.074 52.1633 264.38 51.4947 264.38 50.52C264.38 49.6133 264.097 48.956 263.53 48.548C262.986 48.1173 262.159 47.902 261.048 47.902H259.416V53.07H260.776ZM284.103 42.054C287.208 42.054 289.588 42.7 291.243 43.992C292.897 45.284 293.725 47.2107 293.725 49.772C293.725 52.4467 292.863 54.4867 291.141 55.892C289.441 57.2973 287.185 58 284.375 58H275.263V34.336H282.267V42.054H284.103ZM294.881 34.336H301.885V58H294.881V34.336ZM283.457 53.07C284.477 53.07 285.225 52.798 285.701 52.254C286.199 51.6873 286.449 50.8827 286.449 49.84C286.449 47.7773 285.406 46.746 283.321 46.746H282.267V53.07H283.457ZM343.564 46.066C343.564 49.4887 342.567 52.0613 340.572 53.784C338.6 55.484 335.892 56.4247 332.446 56.606V59.496H325.646V56.606C322.224 56.4247 319.515 55.5067 317.52 53.852C315.548 52.1747 314.562 49.6473 314.562 46.27C314.562 42.87 315.548 40.32 317.52 38.62C319.492 36.8973 322.201 35.934 325.646 35.73V32.976H332.446V35.73C335.869 35.9113 338.578 36.8407 340.572 38.518C342.567 40.1727 343.564 42.6887 343.564 46.066ZM332.106 52.526C333.693 52.3673 334.815 51.7667 335.472 50.724C336.152 49.6813 336.492 48.1287 336.492 46.066C336.492 44.0713 336.141 42.564 335.438 41.544C334.758 40.524 333.648 39.9347 332.106 39.776V52.526ZM321.634 46.27C321.634 48.242 321.974 49.738 322.654 50.758C323.357 51.778 324.468 52.3787 325.986 52.56V39.81C324.422 39.9687 323.3 40.5807 322.62 41.646C321.963 42.6887 321.634 44.23 321.634 46.27ZM366.278 58H359.444V50.758C359.444 47.358 359.784 44.094 360.464 40.966L355.364 58H347.068V34.336H353.902V41.85C353.902 43.754 353.811 45.352 353.63 46.644C353.471 47.9133 353.222 49.432 352.882 51.2L358.152 34.336H366.278V58ZM383.324 58V48.446H377.918V58H370.914V34.336H377.918V43.074H383.324V34.336H390.328V58H383.324ZM407.37 58L406.452 53.41H400.842L399.958 58H392.648L399.55 34.336H407.914L414.782 58H407.37ZM401.828 48.514H405.466L403.63 39.232L401.828 48.514ZM429.49 58V48.446H424.084V58H417.08V34.336H424.084V43.074H429.49V34.336H436.494V58H429.49ZM451.632 33.656C454.556 33.656 457.094 34.5853 459.248 36.444L456.018 40.252C455.338 39.7533 454.669 39.368 454.012 39.096C453.377 38.824 452.697 38.688 451.972 38.688C450.589 38.688 449.512 39.3113 448.742 40.558C447.994 41.8047 447.62 43.652 447.62 46.1C447.62 48.548 448.005 50.384 448.776 51.608C449.546 52.8093 450.646 53.41 452.074 53.41C452.844 53.41 453.558 53.2513 454.216 52.934C454.896 52.6167 455.644 52.1407 456.46 51.506L459.52 55.382C458.568 56.334 457.412 57.1273 456.052 57.762C454.714 58.374 453.275 58.68 451.734 58.68C449.399 58.68 447.382 58.204 445.682 57.252C443.982 56.2773 442.667 54.8493 441.738 52.968C440.808 51.0867 440.344 48.7973 440.344 46.1C440.344 43.516 440.82 41.2947 441.772 39.436C442.724 37.5547 444.05 36.1267 445.75 35.152C447.45 34.1547 449.41 33.656 451.632 33.656ZM472.285 33.656C475.821 33.656 478.541 34.7553 480.445 36.954C482.372 39.13 483.335 42.19 483.335 46.134C483.335 48.6953 482.904 50.9167 482.043 52.798C481.182 54.6793 479.924 56.13 478.269 57.15C476.614 58.17 474.62 58.68 472.285 58.68C468.749 58.68 466.018 57.5807 464.091 55.382C462.187 53.1607 461.235 50.078 461.235 46.134C461.235 43.5727 461.666 41.3627 462.527 39.504C463.388 37.6227 464.646 36.1833 466.301 35.186C467.956 34.166 469.95 33.656 472.285 33.656ZM472.285 38.62C470.948 38.62 469.984 39.198 469.395 40.354C468.806 41.4873 468.511 43.414 468.511 46.134C468.511 48.854 468.806 50.8033 469.395 51.982C469.984 53.138 470.948 53.716 472.285 53.716C473.645 53.716 474.608 53.138 475.175 51.982C475.764 50.826 476.059 48.8767 476.059 46.134C476.059 43.414 475.764 41.4873 475.175 40.354C474.586 39.198 473.622 38.62 472.285 38.62ZM501.098 45.454C502.662 45.7713 503.931 46.3607 504.906 47.222C505.88 48.0607 506.368 49.3187 506.368 50.996C506.368 53.6027 505.416 55.4273 503.512 56.47C501.63 57.49 498.956 58 495.488 58H487.192V34.336H494.57C498.083 34.336 500.758 34.812 502.594 35.764C504.452 36.6933 505.382 38.2573 505.382 40.456C505.382 41.8613 504.974 42.972 504.158 43.788C503.342 44.5813 502.322 45.1367 501.098 45.454ZM494.196 39.13V43.482H495.386C496.451 43.482 497.199 43.312 497.63 42.972C498.06 42.6093 498.276 42.0087 498.276 41.17C498.276 40.4673 498.038 39.9573 497.562 39.64C497.108 39.3 496.326 39.13 495.216 39.13H494.196ZM495.556 53.07C496.734 53.07 497.63 52.8887 498.242 52.526C498.854 52.1633 499.16 51.4947 499.16 50.52C499.16 49.6133 498.876 48.956 498.31 48.548C497.766 48.1173 496.938 47.902 495.828 47.902H494.196V53.07H495.556ZM520.31 33.656C523.846 33.656 526.566 34.7553 528.47 36.954C530.397 39.13 531.36 42.19 531.36 46.134C531.36 48.6953 530.929 50.9167 530.068 52.798C529.207 54.6793 527.949 56.13 526.294 57.15C524.639 58.17 522.645 58.68 520.31 58.68C516.774 58.68 514.043 57.5807 512.116 55.382C510.212 53.1607 509.26 50.078 509.26 46.134C509.26 43.5727 509.691 41.3627 510.552 39.504C511.413 37.6227 512.671 36.1833 514.326 35.186C515.981 34.166 517.975 33.656 520.31 33.656ZM520.31 38.62C518.973 38.62 518.009 39.198 517.42 40.354C516.831 41.4873 516.536 43.414 516.536 46.134C516.536 48.854 516.831 50.8033 517.42 51.982C518.009 53.138 518.973 53.716 520.31 53.716C521.67 53.716 522.633 53.138 523.2 51.982C523.789 50.826 524.084 48.8767 524.084 46.134C524.084 43.414 523.789 41.4873 523.2 40.354C522.611 39.198 521.647 38.62 520.31 38.62ZM554.427 58H547.593V50.758C547.593 47.358 547.933 44.094 548.613 40.966L543.513 58H535.217V34.336H542.051V41.85C542.051 43.754 541.96 45.352 541.779 46.644C541.62 47.9133 541.371 49.432 541.031 51.2L546.301 34.336H554.427V58ZM544.839 32.636C542.889 32.636 541.382 32.092 540.317 31.004C539.274 29.916 538.685 28.4653 538.549 26.652L542.051 26.074C542.232 26.7767 542.549 27.2867 543.003 27.604C543.456 27.9213 544.068 28.08 544.839 28.08C545.609 28.08 546.221 27.9213 546.675 27.604C547.128 27.2867 547.445 26.7767 547.627 26.074L551.129 26.652C550.993 28.4653 550.392 29.916 549.327 31.004C548.284 32.092 546.788 32.636 544.839 32.636ZM584.316 34.336L583.636 39.708H575.238V58H568.234V34.336H584.316ZM595.833 34.336C599.074 34.336 601.59 35.016 603.381 36.376C605.194 37.7133 606.101 39.6853 606.101 42.292C606.101 44.9893 605.24 47.052 603.517 48.48C601.817 49.908 599.516 50.622 596.615 50.622H594.303V58H587.299V34.336H595.833ZM595.935 45.692C597.952 45.692 598.961 44.5587 598.961 42.292C598.961 40.2293 597.884 39.198 595.731 39.198H594.303V45.692H595.935ZM620.169 58L619.251 53.41H613.641L612.757 58H605.447L612.349 34.336H620.713L627.581 58H620.169ZM614.627 48.514H618.265L616.429 39.232L614.627 48.514ZM654.801 58H647.899L647.729 49.602C647.706 48.9447 647.695 47.9587 647.695 46.644C647.695 44.332 647.785 42.0993 647.967 39.946L645.179 55.62H638.549L635.557 39.946C635.851 43.0967 635.999 45.794 635.999 48.038V49.568L635.829 58H628.927L630.627 34.336H639.263L641.983 49.67L644.431 34.336H653.101L654.801 58ZM668.409 33.656C671.945 33.656 674.665 34.7553 676.569 36.954C678.496 39.13 679.459 42.19 679.459 46.134C679.459 48.6953 679.029 50.9167 678.167 52.798C677.306 54.6793 676.048 56.13 674.393 57.15C672.739 58.17 670.744 58.68 668.409 58.68C664.873 58.68 662.142 57.5807 660.215 55.382C658.311 53.1607 657.359 50.078 657.359 46.134C657.359 43.5727 657.79 41.3627 658.651 39.504C659.513 37.6227 660.771 36.1833 662.425 35.186C664.08 34.166 666.075 33.656 668.409 33.656ZM668.409 38.62C667.072 38.62 666.109 39.198 665.519 40.354C664.93 41.4873 664.635 43.414 664.635 46.134C664.635 48.854 664.93 50.8033 665.519 51.982C666.109 53.138 667.072 53.716 668.409 53.716C669.769 53.716 670.733 53.138 671.299 51.982C671.889 50.826 672.183 48.8767 672.183 46.134C672.183 43.414 671.889 41.4873 671.299 40.354C670.71 39.198 669.747 38.62 668.409 38.62ZM699.665 34.336L698.951 39.572H693.579V58H686.575V39.572H680.829V34.336H699.665ZM715.057 58V48.446H709.651V58H702.647V34.336H709.651V43.074H715.057V34.336H722.061V58H715.057ZM736.96 33.656C740.496 33.656 743.216 34.7553 745.12 36.954C747.047 39.13 748.01 42.19 748.01 46.134C748.01 48.6953 747.58 50.9167 746.718 52.798C745.857 54.6793 744.599 56.13 742.944 57.15C741.29 58.17 739.295 58.68 736.96 58.68C733.424 58.68 730.693 57.5807 728.766 55.382C726.862 53.1607 725.91 50.078 725.91 46.134C725.91 43.5727 726.341 41.3627 727.202 39.504C728.064 37.6227 729.322 36.1833 730.976 35.186C732.631 34.166 734.626 33.656 736.96 33.656ZM736.96 38.62C735.623 38.62 734.66 39.198 734.07 40.354C733.481 41.4873 733.186 43.414 733.186 46.134C733.186 48.854 733.481 50.8033 734.07 51.982C734.66 53.138 735.623 53.716 736.96 53.716C738.32 53.716 739.284 53.138 739.85 51.982C740.44 50.826 740.734 48.8767 740.734 46.134C740.734 43.414 740.44 41.4873 739.85 40.354C739.261 39.198 738.298 38.62 736.96 38.62ZM762.373 33.656C765.297 33.656 767.836 34.5853 769.989 36.444L766.759 40.252C766.079 39.7533 765.41 39.368 764.753 39.096C764.118 38.824 763.438 38.688 762.713 38.688C761.33 38.688 760.254 39.3113 759.483 40.558C758.735 41.8047 758.361 43.652 758.361 46.1C758.361 48.548 758.746 50.384 759.517 51.608C760.288 52.8093 761.387 53.41 762.815 53.41C763.586 53.41 764.3 53.2513 764.957 52.934C765.637 52.6167 766.385 52.1407 767.201 51.506L770.261 55.382C769.309 56.334 768.153 57.1273 766.793 57.762C765.456 58.374 764.016 58.68 762.475 58.68C760.14 58.68 758.123 58.204 756.423 57.252C754.723 56.2773 753.408 54.8493 752.479 52.968C751.55 51.0867 751.085 48.7973 751.085 46.1C751.085 43.516 751.561 41.2947 752.513 39.436C753.465 37.5547 754.791 36.1267 756.491 35.152C758.191 34.1547 760.152 33.656 762.373 33.656ZM790.635 34.336L789.921 39.572H784.549V58H777.545V39.572H771.799V34.336H790.635ZM812.827 58H805.993V50.758C805.993 47.358 806.333 44.094 807.013 40.966L801.913 58H793.617V34.336H800.451V41.85C800.451 43.754 800.36 45.352 800.179 46.644C800.02 47.9133 799.771 49.432 799.431 51.2L804.701 34.336H812.827V58ZM176.998 99.764V110.95H172.34L171.66 105H159.828L159.148 110.95H154.49V99.764H156.292C156.881 98.9933 157.38 97.8373 157.788 96.296C158.196 94.732 158.604 92.3407 159.012 89.122L159.964 81.336H174.822V99.764H176.998ZM168.09 86.334H165.812L165.642 88.272C165.325 91.5587 164.86 94.0747 164.248 95.82C163.636 97.5653 162.797 98.88 161.732 99.764H168.09V86.334ZM199.254 81.336V105H192.25V86.504H188.884L188.102 93.168C187.785 95.82 187.354 97.9733 186.81 99.628C186.289 101.283 185.484 102.62 184.396 103.64C183.331 104.66 181.858 105.34 179.976 105.68L178.344 100.92C179.138 100.58 179.727 100.115 180.112 99.526C180.52 98.914 180.815 98.132 180.996 97.18C181.2 96.228 181.427 94.7093 181.676 92.624L183.036 81.336H199.254ZM221.671 81.336V105H214.667V96.942H213.069L209.533 105H201.917L206.949 95.718C205.635 95.1287 204.649 94.3127 203.991 93.27C203.334 92.2047 203.005 90.822 203.005 89.122C203.005 86.47 203.844 84.5093 205.521 83.24C207.199 81.9707 209.726 81.336 213.103 81.336H221.671ZM214.667 92.25V86.13H213.443C212.446 86.13 211.664 86.4133 211.097 86.98C210.553 87.524 210.281 88.306 210.281 89.326C210.281 90.2553 210.542 90.9807 211.063 91.502C211.607 92.0007 212.31 92.25 213.171 92.25H214.667ZM247.889 105V95.446H242.483V105H235.479V81.336H242.483V90.074H247.889V81.336H254.893V105H247.889ZM271.935 105L271.017 100.41H265.407L264.523 105H257.212L264.115 81.336H272.479L279.347 105H271.935ZM266.393 95.514H270.031L268.195 86.232L266.393 95.514ZM298.707 81.336V105H291.703V96.704C290.388 97.8147 288.779 98.37 286.875 98.37C284.472 98.37 282.614 97.5993 281.299 96.058C279.984 94.5167 279.327 92.386 279.327 89.666V81.336H286.195V89.666C286.195 90.9807 286.399 91.9327 286.807 92.522C287.238 93.1113 287.952 93.406 288.949 93.406C289.561 93.406 290.082 93.338 290.513 93.202C290.944 93.0433 291.34 92.8053 291.703 92.488V81.336H298.707ZM322.543 105H315.709V97.758C315.709 94.358 316.049 91.094 316.729 87.966L311.629 105H303.333V81.336H310.167V88.85C310.167 90.754 310.076 92.352 309.895 93.644C309.736 94.9133 309.487 96.432 309.147 98.2L314.417 81.336H322.543V105ZM339.589 105V95.446H334.183V105H327.179V81.336H334.183V90.074H339.589V81.336H346.593V105H339.589ZM363.635 105L362.717 100.41H357.107L356.223 105H348.913L355.815 81.336H364.179L371.047 105H363.635ZM358.093 95.514H361.731L359.895 86.232L358.093 95.514ZM392.827 80.656C396.272 80.656 398.913 81.7553 400.749 83.954C402.607 86.13 403.537 89.19 403.537 93.134C403.537 97.0327 402.607 100.104 400.749 102.348C398.89 104.569 396.249 105.68 392.827 105.68C389.744 105.68 387.341 104.796 385.619 103.028C383.919 101.237 382.899 98.71 382.559 95.446H380.349V105H373.345V81.336H380.349V90.074H382.695C383.216 87.014 384.304 84.6793 385.959 83.07C387.636 81.4607 389.925 80.656 392.827 80.656ZM392.827 100.716C394.073 100.716 394.957 100.138 395.479 98.982C396 97.826 396.261 95.8767 396.261 93.134C396.261 90.414 395.989 88.4873 395.445 87.354C394.923 86.198 394.051 85.62 392.827 85.62C391.603 85.62 390.719 86.198 390.175 87.354C389.653 88.4873 389.393 90.414 389.393 93.134C389.393 95.854 389.653 97.8033 390.175 98.982C390.719 100.138 391.603 100.716 392.827 100.716ZM435.061 99.764H437.781V110.95H433.123L432.443 105H407.385V81.336H414.253V99.628H417.959V81.336H424.487V99.628H428.193V81.336H435.061V99.764ZM456.83 81.336L456.116 86.198H448.296V90.618H455.164V95.344H448.296V100.104H456.66V105H441.292V81.336H456.83ZM476.738 81.336L476.058 86.708H467.66V105H460.656V81.336H476.738ZM487.964 80.656C491.5 80.656 494.22 81.7553 496.124 83.954C498.05 86.13 499.014 89.19 499.014 93.134C499.014 95.6953 498.583 97.9167 497.722 99.798C496.86 101.679 495.602 103.13 493.948 104.15C492.293 105.17 490.298 105.68 487.964 105.68C484.428 105.68 481.696 104.581 479.77 102.382C477.866 100.161 476.914 97.078 476.914 93.134C476.914 90.5727 477.344 88.3627 478.206 86.504C479.067 84.6227 480.325 83.1833 481.98 82.186C483.634 81.166 485.629 80.656 487.964 80.656ZM487.964 85.62C486.626 85.62 485.663 86.198 485.074 87.354C484.484 88.4873 484.19 90.414 484.19 93.134C484.19 95.854 484.484 97.8033 485.074 98.982C485.663 100.138 486.626 100.716 487.964 100.716C489.324 100.716 490.287 100.138 490.854 98.982C491.443 97.826 491.738 95.8767 491.738 93.134C491.738 90.414 491.443 88.4873 490.854 87.354C490.264 86.198 489.301 85.62 487.964 85.62ZM531.455 81.336V105H524.451V86.572H519.045V105H512.041V81.336H531.455ZM544.621 81.336C547.862 81.336 550.378 82.016 552.169 83.376C553.982 84.7133 554.889 86.6853 554.889 89.292C554.889 91.9893 554.027 94.052 552.305 95.48C550.605 96.908 548.304 97.622 545.403 97.622H543.091V105H536.087V81.336H544.621ZM544.723 92.692C546.74 92.692 547.749 91.5587 547.749 89.292C547.749 87.2293 546.672 86.198 544.519 86.198H543.091V92.692H544.723ZM574.11 81.336L573.396 86.198H565.576V90.618H572.444V95.344H565.576V100.104H573.94V105H558.572V81.336H574.11ZM598.804 99.764V110.95H594.146L593.466 105H581.634L580.954 110.95H576.296V99.764H578.098C578.687 98.9933 579.186 97.8373 579.594 96.296C580.002 94.732 580.41 92.3407 580.818 89.122L581.77 81.336H596.628V99.764H598.804ZM589.896 86.334H587.618L587.448 88.272C587.131 91.5587 586.666 94.0747 586.054 95.82C585.442 97.5653 584.603 98.88 583.538 99.764H589.896V86.334ZM621.196 81.336V105H614.192V86.572H608.786V105H601.782V81.336H621.196ZM634.362 81.336C637.603 81.336 640.119 82.016 641.91 83.376C643.723 84.7133 644.63 86.6853 644.63 89.292C644.63 91.9893 643.769 94.052 642.046 95.48C640.346 96.908 638.045 97.622 635.144 97.622H632.832V105H625.828V81.336H634.362ZM634.464 92.692C636.481 92.692 637.49 91.5587 637.49 89.292C637.49 87.2293 636.413 86.198 634.26 86.198H632.832V92.692H634.464ZM667.523 105H660.689V97.758C660.689 94.358 661.029 91.094 661.709 87.966L656.609 105H648.313V81.336H655.147V88.85C655.147 90.754 655.056 92.352 654.875 93.644C654.716 94.9133 654.467 96.432 654.127 98.2L659.397 81.336H667.523V105ZM684.57 105V95.446H679.164V105H672.16V81.336H679.164V90.074H684.57V81.336H691.574V105H684.57ZM715.415 105H708.581V97.758C708.581 94.358 708.921 91.094 709.601 87.966L704.501 105H696.205V81.336H703.039V88.85C703.039 90.754 702.949 92.352 702.767 93.644C702.609 94.9133 702.359 96.432 702.019 98.2L707.289 81.336H715.415V105ZM744.974 105H738.072L737.902 96.602C737.879 95.9447 737.868 94.9587 737.868 93.644C737.868 91.332 737.959 89.0993 738.14 86.946L735.352 102.62H728.722L725.73 86.946C726.025 90.0967 726.172 92.794 726.172 95.038V96.568L726.002 105H719.1L720.8 81.336H729.436L732.156 96.67L734.604 81.336H743.274L744.974 105ZM761.056 105L760.138 100.41H754.528L753.644 105H746.334L753.236 81.336H761.6L768.468 105H761.056ZM755.514 95.514H759.152L757.316 86.232L755.514 95.514ZM786.617 81.336L785.903 86.572H780.531V105H773.527V86.572H767.781V81.336H786.617ZM805.137 81.336L804.423 86.198H796.603V90.618H803.471V95.344H796.603V100.104H804.967V105H789.599V81.336H805.137ZM828.241 81.336V105H821.237V86.504H817.871L817.089 93.168C816.772 95.82 816.341 97.9733 815.797 99.628C815.276 101.283 814.471 102.62 813.383 103.64C812.318 104.66 810.844 105.34 808.963 105.68L807.331 100.92C808.124 100.58 808.714 100.115 809.099 99.526C809.507 98.914 809.802 98.132 809.983 97.18C810.187 96.228 810.414 94.7093 810.663 92.624L812.023 81.336H828.241ZM850.658 81.336V105H843.654V96.942H842.056L838.52 105H830.904L835.936 95.718C834.621 95.1287 833.635 94.3127 832.978 93.27C832.321 92.2047 831.992 90.822 831.992 89.122C831.992 86.47 832.831 84.5093 834.508 83.24C836.185 81.9707 838.713 81.336 842.09 81.336H850.658ZM843.654 92.25V86.13H842.43C841.433 86.13 840.651 86.4133 840.084 86.98C839.54 87.524 839.268 88.306 839.268 89.326C839.268 90.2553 839.529 90.9807 840.05 91.502C840.594 92.0007 841.297 92.25 842.158 92.25H843.654Z" fill="white"/>
<path d="M35 33.4893L97 33.4893" stroke="white" stroke-width="8"/>
<path d="M66 101.425V46.885M66 46.885H35M66 46.885H97" stroke="white" stroke-width="8"/>
<mask id="path-4-inside-1" fill="white">
<rect width="133" height="133" rx="5"/>
</mask>
<rect width="133" height="133" rx="5" stroke="white" stroke-width="14" mask="url(#path-4-inside-1)"/>
<line x1="66.5" y1="119.604" x2="66.5" y2="126.302" stroke="white" stroke-width="7"/>
<line x1="80.5" y1="119.604" x2="80.5" y2="126.302" stroke="white" stroke-width="7"/>
<line x1="94.5" y1="119.604" x2="94.5" y2="126.302" stroke="white" stroke-width="7"/>
<line x1="108.5" y1="119.604" x2="108.5" y2="126.302" stroke="white" stroke-width="7"/>
<line x1="122.5" y1="119.604" x2="122.5" y2="126.302" stroke="white" stroke-width="7"/>
<line x1="52.5" y1="119.604" x2="52.5" y2="126.302" stroke="white" stroke-width="7"/>
<line x1="38.5" y1="119.604" x2="38.5" y2="126.302" stroke="white" stroke-width="7"/>
<line x1="24.5" y1="119.604" x2="24.5" y2="126.302" stroke="white" stroke-width="7"/>
<line x1="10.5" y1="119.604" x2="10.5" y2="126.302" stroke="white" stroke-width="7"/>
<line x1="66.5" y1="6.69788" x2="66.5" y2="13.3957" stroke="white" stroke-width="7"/>
<line x1="80.5" y1="6.69788" x2="80.5" y2="13.3957" stroke="white" stroke-width="7"/>
<line x1="94.5" y1="6.69788" x2="94.5" y2="13.3957" stroke="white" stroke-width="7"/>
<line x1="108.5" y1="6.69788" x2="108.5" y2="13.3957" stroke="white" stroke-width="7"/>
<line x1="122.5" y1="6.69788" x2="122.5" y2="13.3957" stroke="white" stroke-width="7"/>
<line x1="52.5" y1="6.69788" x2="52.5" y2="13.3957" stroke="white" stroke-width="7"/>
<line x1="38.5" y1="6.69788" x2="38.5" y2="13.3957" stroke="white" stroke-width="7"/>
<line x1="24.5" y1="6.69788" x2="24.5" y2="13.3957" stroke="white" stroke-width="7"/>
<line x1="10.5" y1="6.69788" x2="10.5" y2="13.3957" stroke="white" stroke-width="7"/>
<line x1="119" y1="66.3489" x2="126" y2="66.3489" stroke="white" stroke-width="7"/>
<line x1="119" y1="52.9531" x2="126" y2="52.9531" stroke="white" stroke-width="7"/>
<line x1="119" y1="39.5576" x2="126" y2="39.5576" stroke="white" stroke-width="7"/>
<line x1="119" y1="26.1619" x2="126" y2="26.1619" stroke="white" stroke-width="7"/>
<line x1="119" y1="12.7661" x2="126" y2="12.7661" stroke="white" stroke-width="7"/>
<line x1="119" y1="79.7446" x2="126" y2="79.7446" stroke="white" stroke-width="7"/>
<line x1="119" y1="93.1404" x2="126" y2="93.1404" stroke="white" stroke-width="7"/>
<line x1="119" y1="106.536" x2="126" y2="106.536" stroke="white" stroke-width="7"/>
<line x1="119" y1="119.932" x2="126" y2="119.932" stroke="white" stroke-width="7"/>
<line x1="7" y1="66.3489" x2="14" y2="66.3489" stroke="white" stroke-width="7"/>
<line x1="7" y1="52.9531" x2="14" y2="52.9531" stroke="white" stroke-width="7"/>
<line x1="7" y1="39.5576" x2="14" y2="39.5576" stroke="white" stroke-width="7"/>
<line x1="7" y1="26.1619" x2="14" y2="26.1619" stroke="white" stroke-width="7"/>
<line x1="7" y1="12.7661" x2="14" y2="12.7661" stroke="white" stroke-width="7"/>
<line x1="7" y1="79.7446" x2="14" y2="79.7446" stroke="white" stroke-width="7"/>
<line x1="7" y1="93.1404" x2="14" y2="93.1404" stroke="white" stroke-width="7"/>
<line x1="7" y1="106.536" x2="14" y2="106.536" stroke="white" stroke-width="7"/>
<line x1="7" y1="119.932" x2="14" y2="119.932" stroke="white" stroke-width="7"/>
</svg>
